<svg xmlns="http://www.w3.org/2000/svg" width="67.998" height="40.508" viewBox="0 0 67.998 40.508"><defs><style>.a{fill:#fff;}</style></defs><g transform="translate(-14171.077 -1798.363)"><g transform="translate(14217.374 1798.363)"><path class="a" d="M11.991,6.81a.687.687,0,0,1-.684.684H-9.028A.685.685,0,0,1-9.71,6.81V-4.833a.683.683,0,0,1,.682-.682H11.307a.685.685,0,0,1,.684.682Z" transform="translate(9.71 5.515)"/></g><g transform="translate(14194.226 1812.828)"><path class="a" d="M11.991,14.012a.685.685,0,0,1-.684.684H-9.028a.685.685,0,0,1-.682-.684V-10.663a.685.685,0,0,1,.682-.684H11.307a.685.685,0,0,1,.684.684Z" transform="translate(9.71 11.347)"/></g><g transform="translate(14171.077 1798.363)"><path class="a" d="M24.782,6.81a.685.685,0,0,1-.684.684H-19.384a.687.687,0,0,1-.684-.684V-4.833a.685.685,0,0,1,.684-.682H24.1a.683.683,0,0,1,.684.682Z" transform="translate(20.068 5.515)"/></g></g></svg>