<svg xmlns="http://www.w3.org/2000/svg" xmlns:xlink="http://www.w3.org/1999/xlink" width="234.353" height="48.638" viewBox="0 0 234.353 48.638"><defs><style>.a{fill:#fff;}.b{clip-path:url(#a);}</style><clipPath id="a"><path class="a" d="M0,27.276H234.353V-21.362H0Z" transform="translate(0 21.362)"/></clipPath></defs><g class="b" transform="translate(0 0)"><g transform="translate(47.165 0.001)"><path class="a" d="M12.4,7.042a.7.7,0,0,1-.7.7H-9.016a.7.7,0,0,1-.694-.7V-4.821a.7.7,0,0,1,.694-.694H11.7a.7.7,0,0,1,.7.694Z" transform="translate(9.71 5.515)"/></g><g transform="translate(23.583 27.997)"><path class="a" d="M12.4,7.042a.7.7,0,0,1-.7.7H-9.016a.7.7,0,0,1-.694-.7V-4.821a.7.7,0,0,1,.694-.694H11.7a.7.7,0,0,1,.7.694Z" transform="translate(9.71 5.515)"/></g><g transform="translate(0 0.001)"><path class="a" d="M16.095,0H-11.911a.7.7,0,0,0-.694.7v11.86a.7.7,0,0,0,.694.7H10.282a.7.7,0,0,1,.694.7V25.822a.7.7,0,0,0,.7.694H32.39a.7.7,0,0,0,.694-.694V.7A.7.7,0,0,0,32.39,0Z" transform="translate(12.605)"/></g><g transform="translate(70.748 0.001)"><path class="a" d="M12.4,7.042a.7.7,0,0,1-.7.7H-9.016a.7.7,0,0,1-.694-.7V-4.821a.7.7,0,0,1,.694-.694H11.7a.7.7,0,0,1,.7.694Z" transform="translate(9.71 5.515)"/></g><g transform="translate(70.748 14.725)"><path class="a" d="M12.4,18.628a.7.7,0,0,1-.7.7H-9.016a.7.7,0,0,1-.694-.7v-32.52a.7.7,0,0,1,.694-.7H11.7a.7.7,0,0,1,.7.7Z" transform="translate(9.71 14.589)"/></g><g transform="translate(94.331 0.001)"><path class="a" d="M12.4,7.042a.7.7,0,0,1-.7.7H-9.016a.7.7,0,0,1-.694-.7V-4.821a.7.7,0,0,1,.694-.694H11.7a.7.7,0,0,1,.7.694Z" transform="translate(9.71 5.515)"/></g><g transform="translate(141.496 0.001)"><path class="a" d="M12.4,7.042a.7.7,0,0,1-.7.7H-9.016a.7.7,0,0,1-.694-.7V-4.821a.7.7,0,0,1,.694-.694H11.7a.7.7,0,0,1,.7.694Z" transform="translate(9.71 5.515)"/></g><g transform="translate(212.244 0.001)"><path class="a" d="M12.4,7.042a.7.7,0,0,1-.7.7H-9.016a.7.7,0,0,1-.694-.7V-4.821a.7.7,0,0,1,.694-.694H11.7a.7.7,0,0,1,.7.694Z" transform="translate(9.71 5.515)"/></g><g transform="translate(188.661 14.737)"><path class="a" d="M12.4,14.489a.7.7,0,0,1-.7.7H-9.016a.7.7,0,0,1-.694-.7V-10.65a.7.7,0,0,1,.694-.7H11.7a.7.7,0,0,1,.7.7Z" transform="translate(9.71 11.347)"/></g><g transform="translate(165.077 0.001)"><path class="a" d="M25.624,7.042a.7.7,0,0,1-.7.7h-44.3a.7.7,0,0,1-.7-.7V-4.821a.7.7,0,0,1,.7-.694h44.3a.7.7,0,0,1,.7.694Z" transform="translate(20.068 5.515)"/></g><g transform="translate(141.496 14.726)"><path class="a" d="M12.4,14.485a.7.7,0,0,1-.7.7H-9.016a.7.7,0,0,1-.694-.7V-10.647a.7.7,0,0,1,.694-.7H11.7a.7.7,0,0,1,.7.7Z" transform="translate(9.71 11.344)"/></g><g transform="translate(117.913 27.997)"><path class="a" d="M12.4,7.042a.7.7,0,0,1-.7.7H-9.016a.7.7,0,0,1-.694-.7V-4.821a.7.7,0,0,1,.694-.694H11.7a.7.7,0,0,1,.7.694Z" transform="translate(9.71 5.515)"/></g><g transform="translate(117.913 0.001)"><path class="a" d="M12.4,14.486a.7.7,0,0,1-.7.7H-9.016a.7.7,0,0,1-.694-.7V-10.651a.7.7,0,0,1,.694-.694H11.7a.7.7,0,0,1,.7.694Z" transform="translate(9.71 11.345)"/></g></g></svg>