<svg xmlns="http://www.w3.org/2000/svg" width="234.353" height="48.638" viewBox="0 0 234.353 48.638"><defs><clipPath id="a"><path class="a" d="M0 27.276h234.353v-48.638H0z" transform="translate(0 21.362)"/></clipPath><style>.a{fill:#fff}</style></defs><g clip-path="url(#a)"><path class="a" d="M69.275 12.558a.7.7 0 01-.7.7H47.859a.7.7 0 01-.694-.7V.695a.7.7 0 01.694-.694h20.716a.7.7 0 01.7.694zM45.693 40.554a.7.7 0 01-.7.7H24.277a.7.7 0 01-.694-.7V28.691a.7.7 0 01.694-.694h20.716a.7.7 0 01.7.694zM28.7.001H.694a.7.7 0 00-.694.7v11.86a.7.7 0 00.694.7h22.193a.7.7 0 01.694.7v11.862a.7.7 0 00.7.694h20.714a.7.7 0 00.694-.694V.701a.7.7 0 00-.694-.7zm64.158 12.557a.7.7 0 01-.7.7H71.442a.7.7 0 01-.694-.7V.695a.7.7 0 01.694-.694h20.716a.7.7 0 01.7.694zm0 35.384a.7.7 0 01-.7.7H71.442a.7.7 0 01-.694-.7v-32.52a.7.7 0 01.694-.7h20.716a.7.7 0 01.7.7zm23.583-35.384a.7.7 0 01-.7.7H95.025a.7.7 0 01-.694-.7V.695a.7.7 0 01.694-.694h20.716a.7.7 0 01.7.694zm47.165 0a.7.7 0 01-.7.7H142.19a.7.7 0 01-.694-.7V.695a.7.7 0 01.694-.694h20.716a.7.7 0 01.7.694zm70.748 0a.7.7 0 01-.7.7h-20.716a.7.7 0 01-.694-.7V.695a.7.7 0 01.694-.694h20.716a.7.7 0 01.7.694zm-23.583 28.015a.7.7 0 01-.7.7h-20.716a.7.7 0 01-.694-.7V15.434a.7.7 0 01.694-.7h20.716a.7.7 0 01.7.7zm-.002-28.015a.7.7 0 01-.7.7h-44.3a.7.7 0 01-.7-.7V.695a.7.7 0 01.7-.694h44.3a.7.7 0 01.7.694zm-47.163 27.997a.7.7 0 01-.7.7H142.19a.7.7 0 01-.694-.7V15.423a.7.7 0 01.694-.7h20.716a.7.7 0 01.7.7zm-23.583-.001a.7.7 0 01-.7.7h-20.716a.7.7 0 01-.694-.7V28.691a.7.7 0 01.694-.694h20.716a.7.7 0 01.7.694zm0-14.722a.7.7 0 01-.7.7h-20.716a.7.7 0 01-.694-.7V.695a.7.7 0 01.694-.694h20.716a.7.7 0 01.7.694z"/></g></svg>